<?xml version="1.0" encoding="utf-8"?>
<!-- Generator: Adobe Illustrator 16.0.4, SVG Export Plug-In . SVG Version: 6.00 Build 0)  -->
<!DOCTYPE svg PUBLIC "-//W3C//DTD SVG 1.1//EN" "http://www.w3.org/Graphics/SVG/1.1/DTD/svg11.dtd">
<svg version="1.1" id="Layer_1" xmlns="http://www.w3.org/2000/svg" xmlns:xlink="http://www.w3.org/1999/xlink" x="0px" y="0px"
	 width="487px" height="195px" viewBox="0 0 487 195" enable-background="new 0 0 487 195" xml:space="preserve">
<g>
	<path fill="#FFFFFF" d="M81.167,35.621c0-5.067,4.026-9.18,9.014-9.18c4.971,0,9.007,4.11,9.007,9.18
		c0,5.059-4.036,9.162-9.007,9.162C85.195,44.783,81.167,40.68,81.167,35.621"/>
	<path fill="#FFFFFF" d="M81.167,159.329c0-5.062,4.026-9.172,9.014-9.172c4.971,0,9.007,4.11,9.007,9.168
		c0,5.071-4.036,9.167-9.007,9.167C85.195,168.492,81.167,164.396,81.167,159.329"/>
	<path fill="#FFFFFF" d="M40.59,60.332c-3.518-3.586-3.518-9.394,0-12.96c3.53-3.588,9.239-3.588,12.757,0
		c3.51,3.566,3.51,9.374,0,12.96C49.83,63.912,44.12,63.912,40.59,60.332"/>
	<path fill="#FFFFFF" d="M126.615,147.809c-3.52-3.574-3.52-9.389,0-12.957c3.534-3.586,9.243-3.586,12.754,0
		c3.52,3.568,3.52,9.383,0,12.957C135.859,151.391,130.15,151.391,126.615,147.809"/>
	<path fill="#FFFFFF" d="M29.037,106.85c-4.979,0-9.014-4.107-9.014-9.162c0-5.069,4.036-9.179,9.014-9.179
		c4.979,0,9.014,4.109,9.014,9.179C38.051,102.741,34.015,106.85,29.037,106.85"/>
	<path fill="#FFFFFF" d="M150.695,106.838c-4.97,0-9.006-4.104-9.006-9.165c0-5.06,4.03-9.164,9.006-9.164
		c4.979,0,9.008,4.104,9.008,9.164C159.702,102.734,155.673,106.838,150.695,106.838"/>
	<path fill="#FFFFFF" d="M53.151,148.172c-3.52,3.59-9.236,3.59-12.737,0c-3.532-3.576-3.532-9.383,0-12.955
		c3.501-3.586,9.218-3.586,12.737,0C56.661,138.789,56.661,144.596,53.151,148.172"/>
	<path fill="#FFFFFF" d="M139.181,60.688c-3.512,3.583-9.228,3.583-12.753,0.01c-3.511-3.586-3.511-9.398,0-12.98
		c3.525-3.574,9.241-3.574,12.753,0C142.704,51.3,142.704,57.101,139.181,60.688"/>
	<path fill="#FFFFFF" d="M83.785,54.204c0-3.543,2.813-6.418,6.307-6.418c3.478,0,6.307,2.875,6.307,6.418
		c0,3.532-2.829,6.406-6.307,6.406C86.599,60.61,83.785,57.736,83.785,54.204"/>
	<path fill="#FFFFFF" d="M83.785,140.738c0-3.539,2.813-6.403,6.307-6.403c3.478,0,6.307,2.864,6.307,6.403
		c0,3.548-2.829,6.425-6.307,6.425C86.599,147.163,83.785,144.286,83.785,140.738"/>
	<path fill="#FFFFFF" d="M55.398,71.5c-2.469-2.502-2.469-6.574,0-9.07c2.46-2.507,6.447-2.507,8.915,0
		c2.463,2.496,2.463,6.568,0,9.07C61.845,74.005,57.858,74.005,55.398,71.5"/>
	<path fill="#FFFFFF" d="M115.575,132.698c-2.461-2.511-2.461-6.567,0-9.07c2.453-2.513,6.455-2.513,8.921,0
		c2.463,2.503,2.463,6.562,0,9.07C122.031,135.195,118.028,135.195,115.575,132.698"/>
	<path fill="#FFFFFF" d="M47.312,104.032c-3.485,0-6.312-2.871-6.312-6.406c0-3.541,2.826-6.414,6.312-6.414
		s6.312,2.873,6.312,6.414C53.625,101.161,50.797,104.032,47.312,104.032"/>
	<path fill="#FFFFFF" d="M132.427,104.032c-3.494,0-6.319-2.871-6.319-6.411c0-3.552,2.826-6.417,6.319-6.417
		c3.472,0,6.293,2.865,6.293,6.417C138.72,101.161,135.899,104.032,132.427,104.032"/>
	<path fill="#FFFFFF" d="M64.175,132.948c-2.46,2.507-6.452,2.507-8.917,0.006c-2.467-2.504-2.467-6.573,0-9.07
		c2.465-2.513,6.457-2.513,8.917,0C66.643,126.381,66.643,130.45,64.175,132.948"/>
	<path fill="#FFFFFF" d="M124.36,71.749c-2.462,2.504-6.455,2.504-8.915,0c-2.453-2.505-2.453-6.569,0-9.075
		c2.46-2.507,6.453-2.507,8.915,0C126.829,65.18,126.829,69.244,124.36,71.749"/>
	<path fill="#FFFFFF" d="M85.522,66.597c0-2.524,2.021-4.576,4.504-4.576c2.479,0,4.496,2.051,4.496,4.576
		c0,2.526-2.018,4.577-4.496,4.577C87.542,71.173,85.522,69.123,85.522,66.597"/>
	<path fill="#FFFFFF" d="M85.522,128.346c0-2.523,2.021-4.576,4.504-4.576c2.479,0,4.496,2.053,4.496,4.576
		c0,2.529-2.018,4.582-4.496,4.582C87.542,132.928,85.522,130.875,85.522,128.346"/>
	<path fill="#FFFFFF" d="M65.251,78.944c-1.75-1.784-1.75-4.68,0-6.465c1.761-1.793,4.613-1.793,6.361,0
		c1.776,1.785,1.776,4.681,0.016,6.465C69.866,80.733,67.012,80.733,65.251,78.944"/>
	<path fill="#FFFFFF" d="M108.198,122.611c-1.751-1.779-1.751-4.686,0-6.478c1.76-1.78,4.606-1.78,6.348,0
		c1.77,1.792,1.77,4.697,0.03,6.478C112.804,124.4,109.957,124.4,108.198,122.611"/>
	<path fill="#FFFFFF" d="M59.481,102.173c-2.479,0-4.5-2.048-4.5-4.584c0-2.528,2.021-4.578,4.5-4.578
		c2.49,0,4.504,2.05,4.504,4.578C63.986,100.125,61.972,102.173,59.481,102.173"/>
	<path fill="#FFFFFF" d="M120.208,102.173c-2.48,0-4.503-2.048-4.503-4.584c0-2.528,2.022-4.578,4.503-4.578
		c2.491,0,4.512,2.05,4.512,4.578C124.721,100.125,122.699,102.173,120.208,102.173"/>
	<path fill="#FFFFFF" d="M71.523,122.803c-1.764,1.791-4.617,1.791-6.367,0c-1.752-1.785-1.752-4.681,0-6.478
		c1.75-1.786,4.604-1.786,6.367,0C73.274,118.111,73.274,121.018,71.523,122.803"/>
	<path fill="#FFFFFF" d="M114.469,79.126c-1.755,1.793-4.616,1.793-6.377,0c-1.751-1.78-1.751-4.682,0-6.47
		c1.761-1.783,4.622-1.783,6.377,0C116.222,74.444,116.222,77.346,114.469,79.126"/>
	<path fill="#FFFFFF" d="M86.876,76.282c0-1.742,1.386-3.143,3.092-3.143c1.699,0,3.085,1.4,3.085,3.143
		c0,1.733-1.386,3.136-3.085,3.136C88.262,79.418,86.876,78.016,86.876,76.282"/>
	<path fill="#FFFFFF" d="M86.876,118.659c0-1.738,1.386-3.144,3.092-3.144c1.699,0,3.085,1.404,3.085,3.144
		c0,1.735-1.386,3.142-3.085,3.142C88.262,121.801,86.876,120.395,86.876,118.659"/>
	<path fill="#FFFFFF" d="M72.97,84.775c-1.218-1.228-1.218-3.214,0-4.445c1.201-1.226,3.158-1.226,4.367,0
		c1.198,1.231,1.198,3.218,0,4.445C76.128,86,74.171,86,72.97,84.775"/>
	<path fill="#FFFFFF" d="M102.42,114.738c-1.193-1.221-1.193-3.206,0-4.441c1.218-1.221,3.174-1.221,4.379,0
		c1.206,1.235,1.206,3.221,0,4.441C105.594,115.965,103.638,115.965,102.42,114.738"/>
	<path fill="#FFFFFF" d="M69.005,100.711c-1.7,0-3.08-1.404-3.08-3.146c0-1.739,1.38-3.142,3.08-3.142
		c1.696,0,3.083,1.402,3.083,3.142C72.089,99.307,70.702,100.711,69.005,100.711"/>
	<path fill="#FFFFFF" d="M110.68,100.699c-1.706,0-3.085-1.399-3.085-3.144c0-1.73,1.379-3.133,3.085-3.137
		c1.696,0,3.084,1.406,3.084,3.137C113.765,99.3,112.376,100.699,110.68,100.699"/>
	<path fill="#FFFFFF" d="M77.255,114.869c-1.197,1.229-3.158,1.229-4.354,0c-1.209-1.235-1.209-3.223,0-4.444
		c1.197-1.227,3.158-1.227,4.354,0C78.474,111.646,78.474,113.634,77.255,114.869"/>
	<path fill="#FFFFFF" d="M106.729,84.894c-1.21,1.23-3.152,1.23-4.375,0c-1.198-1.226-1.198-3.219,0-4.444
		c1.223-1.224,3.166-1.224,4.391,0C107.939,81.675,107.939,83.668,106.729,84.894"/>
	<path fill="#FFFFFF" d="M89.872,111.311c-7.52,0-13.637-6.207-13.637-13.835c0-7.633,6.117-13.843,13.637-13.843
		c7.516,0,13.631,6.21,13.631,13.843C103.503,105.104,97.388,111.311,89.872,111.311z M89.872,86.618
		c-5.873,0-10.65,4.87-10.65,10.856c0,5.982,4.777,10.849,10.65,10.849c5.87,0,10.645-4.867,10.645-10.849
		C100.517,91.488,95.741,86.618,89.872,86.618z"/>
	<path fill="#FFFFFF" d="M235.392,63.55c0,23.18-13.815,36.41-32.477,36.41c-19.262,0-31.363-14.979-31.363-35.18
		c0-21.334,13.21-36.307,32.369-36.307C223.698,28.473,235.392,43.752,235.392,63.55 M184.657,64.466
		c0,14.156,6.961,25.338,18.858,25.338c12.006,0,18.763-11.384,18.763-25.847c0-13.025-6.354-25.325-18.763-25.325
		C191.219,38.631,184.657,50.21,184.657,64.466"/>
	<path fill="#FFFFFF" d="M246.059,30.725c4.741-0.916,11.596-1.537,18.76-1.537c9.783,0,16.334,1.64,20.978,5.541
		c3.735,3.18,5.848,7.996,5.848,13.946c0,8.921-5.949,14.974-12.397,17.232v0.306c4.935,1.85,7.859,6.666,9.477,13.335
		c2.218,8.61,4.031,16.616,5.341,19.285h-12.707c-1.002-2.055-2.719-7.698-4.529-16.312c-2.021-9.024-5.149-11.898-12.207-12.103
		h-6.256v28.416h-12.304V30.725 M258.363,61.185h7.362c8.374,0,13.521-4.507,13.521-11.379c0-7.487-5.146-11.076-13.216-11.076
		c-3.938,0-6.454,0.307-7.667,0.614V61.185z"/>
	<rect x="303.424" y="29.701" fill="#FFFFFF" width="12.411" height="69.132"/>
	<path fill="#FFFFFF" d="M390.352,63.55c0,23.18-13.816,36.41-32.471,36.41c-19.271,0-31.365-14.979-31.365-35.18
		c0-21.334,13.209-36.307,32.368-36.307C378.651,28.473,390.352,43.752,390.352,63.55 M339.621,64.466
		c0,14.156,6.963,25.338,18.862,25.338c12,0,18.76-11.384,18.76-25.847c0-13.025-6.358-25.325-18.76-25.325
		C346.182,38.631,339.621,50.21,339.621,64.466"/>
	<path fill="#FFFFFF" d="M400.924,98.833V29.7h14.221l17.548,29.644c4.431,7.693,8.466,15.694,11.589,23.177h0.204
		c-0.907-9.228-1.104-18.153-1.104-28.717V29.7h11.497v69.133H441.97l-17.752-30.461c-4.334-7.593-8.774-16.004-12.101-23.799
		l-0.405,0.107c0.504,8.921,0.709,18.051,0.709,29.432v24.722L400.924,98.833"/>
	<path fill="#FFFFFF" d="M176.704,157.909c2.568,1.681,6.266,2.954,10.22,2.954c5.873,0,9.308-3.15,9.308-7.717
		c0-4.16-2.376-6.644-8.384-8.922c-7.259-2.691-11.743-6.588-11.743-12.896c0-7.052,5.737-12.281,14.381-12.281
		c4.488,0,7.854,1.078,9.771,2.218l-1.585,4.764c-1.384-0.872-4.362-2.146-8.385-2.146c-6.062,0-8.378,3.689-8.378,6.778
		c0,4.229,2.71,6.311,8.84,8.725c7.522,2.956,11.288,6.646,11.288,13.293c0,6.977-5.021,13.086-15.504,13.086
		c-4.298,0-8.972-1.343-11.353-2.949L176.704,157.909"/>
	<path fill="#FFFFFF" d="M226.445,165.027v-19.198L212.33,119.79h6.595l6.268,12.483c1.647,3.418,3.037,6.175,4.426,9.324h0.126
		c1.194-2.945,2.774-5.906,4.491-9.324l6.404-12.483h6.468l-14.857,25.974v19.264H226.445"/>
	<path fill="#FFFFFF" d="M257.26,157.909c2.573,1.681,6.268,2.954,10.229,2.954c5.868,0,9.298-3.15,9.298-7.717
		c0-4.16-2.373-6.644-8.381-8.922c-7.251-2.691-11.742-6.588-11.742-12.896c0-7.052,5.739-12.281,14.384-12.281
		c4.489,0,7.854,1.078,9.769,2.218l-1.588,4.764c-1.383-0.872-4.352-2.146-8.383-2.146c-6.064,0-8.374,3.689-8.374,6.778
		c0,4.229,2.706,6.311,8.842,8.725c7.522,2.956,11.286,6.646,11.286,13.293c0,6.977-5.019,13.086-15.51,13.086
		c-4.288,0-8.971-1.343-11.354-2.949L257.26,157.909"/>
	<polygon fill="#FFFFFF" points="305.556,124.751 292.029,124.751 292.029,119.789 324.957,119.789 324.957,124.751 
		311.364,124.751 311.364,165.027 305.556,165.027 	"/>
	<polygon fill="#FFFFFF" points="359.465,143.818 342.242,143.818 342.242,160.129 361.507,160.129 361.507,165.027 
		336.432,165.027 336.432,119.789 360.514,119.789 360.514,124.689 342.242,124.689 342.242,138.982 359.465,138.982 	"/>
	<path fill="#FFFFFF" d="M413.032,145.162c-0.326-6.312-0.722-13.969-0.722-19.534h-0.134c-1.584,5.229-3.367,10.94-5.608,17.181
		l-7.854,21.949h-4.349l-7.261-21.539c-2.111-6.451-3.827-12.227-5.082-17.591H381.9c-0.135,5.64-0.469,13.149-0.869,20.002
		l-1.186,19.397h-5.475l3.104-45.238h7.317l7.593,21.878c1.847,5.567,3.294,10.539,4.483,15.235h0.135
		c1.19-4.561,2.771-9.528,4.747-15.235l7.916-21.878h7.329l2.768,45.238h-5.675L413.032,145.162"/>
	<path fill="#FFFFFF" d="M434.477,157.909c2.566,1.681,6.267,2.954,10.226,2.954c5.867,0,9.301-3.15,9.301-7.717
		c0-4.16-2.374-6.644-8.381-8.922c-7.249-2.691-11.743-6.588-11.743-12.896c0-7.052,5.737-12.281,14.387-12.281
		c4.484,0,7.85,1.078,9.769,2.218l-1.587,4.764c-1.385-0.872-4.354-2.146-8.385-2.146c-6.062,0-8.378,3.689-8.378,6.778
		c0,4.229,2.709,6.311,8.844,8.725c7.518,2.956,11.284,6.646,11.284,13.293c0,6.977-5.019,13.086-15.51,13.086
		c-4.287,0-8.972-1.343-11.349-2.949L434.477,157.909"/>
</g>
</svg>
